<mxfile host="app.diagrams.net" modified="2021-05-15T00:25:05.368Z" agent="5.0 (Windows NT 10.0; Win64; x64) AppleWebKit/537.36 (KHTML, like Gecko) Chrome/90.0.4430.212 Safari/537.36" etag="XTmNIBG3dX6NcHLbkX-L" version="14.6.13" type="github">
  <diagram id="IwX6sSWW9HUgvhzVOTlq" name="Page-1">
    <mxGraphModel dx="782" dy="1121" grid="1" gridSize="10" guides="1" tooltips="1" connect="1" arrows="1" fold="1" page="1" pageScale="1" pageWidth="827" pageHeight="1169" math="0" shadow="0">
      <root>
        <mxCell id="0" />
        <mxCell id="1" parent="0" />
        <mxCell id="SVgFNXOLMLxnsQe0pSa9-5" value="" style="edgeStyle=orthogonalEdgeStyle;rounded=0;orthogonalLoop=1;jettySize=auto;html=1;" edge="1" parent="1" source="SVgFNXOLMLxnsQe0pSa9-1" target="SVgFNXOLMLxnsQe0pSa9-4">
          <mxGeometry relative="1" as="geometry" />
        </mxCell>
        <mxCell id="SVgFNXOLMLxnsQe0pSa9-1" value="컴퓨터가 문제를낸다" style="rounded=0;whiteSpace=wrap;html=1;" vertex="1" parent="1">
          <mxGeometry x="340" y="250" width="120" height="50" as="geometry" />
        </mxCell>
        <mxCell id="SVgFNXOLMLxnsQe0pSa9-13" value="" style="edgeStyle=orthogonalEdgeStyle;rounded=0;orthogonalLoop=1;jettySize=auto;html=1;" edge="1" parent="1" source="SVgFNXOLMLxnsQe0pSa9-4" target="SVgFNXOLMLxnsQe0pSa9-6">
          <mxGeometry relative="1" as="geometry" />
        </mxCell>
        <mxCell id="SVgFNXOLMLxnsQe0pSa9-4" value="답을 입력" style="whiteSpace=wrap;html=1;rounded=0;" vertex="1" parent="1">
          <mxGeometry x="340" y="375" width="120" height="60" as="geometry" />
        </mxCell>
        <mxCell id="SVgFNXOLMLxnsQe0pSa9-8" style="edgeStyle=orthogonalEdgeStyle;rounded=0;orthogonalLoop=1;jettySize=auto;html=1;" edge="1" parent="1" source="SVgFNXOLMLxnsQe0pSa9-6" target="SVgFNXOLMLxnsQe0pSa9-1">
          <mxGeometry relative="1" as="geometry">
            <Array as="points">
              <mxPoint x="600" y="545" />
              <mxPoint x="600" y="275" />
            </Array>
          </mxGeometry>
        </mxCell>
        <mxCell id="SVgFNXOLMLxnsQe0pSa9-11" style="edgeStyle=orthogonalEdgeStyle;rounded=0;orthogonalLoop=1;jettySize=auto;html=1;entryX=0;entryY=0.5;entryDx=0;entryDy=0;" edge="1" parent="1" source="SVgFNXOLMLxnsQe0pSa9-6" target="SVgFNXOLMLxnsQe0pSa9-4">
          <mxGeometry relative="1" as="geometry">
            <Array as="points">
              <mxPoint x="270" y="545" />
              <mxPoint x="270" y="405" />
            </Array>
          </mxGeometry>
        </mxCell>
        <mxCell id="SVgFNXOLMLxnsQe0pSa9-6" value="답이 맞는가?" style="rhombus;whiteSpace=wrap;html=1;rounded=0;" vertex="1" parent="1">
          <mxGeometry x="360" y="505" width="80" height="80" as="geometry" />
        </mxCell>
        <mxCell id="SVgFNXOLMLxnsQe0pSa9-10" value="예" style="text;html=1;align=center;verticalAlign=middle;resizable=0;points=[];autosize=1;strokeColor=none;" vertex="1" parent="1">
          <mxGeometry x="445" y="520" width="30" height="20" as="geometry" />
        </mxCell>
        <mxCell id="SVgFNXOLMLxnsQe0pSa9-12" value="아니오" style="text;html=1;align=center;verticalAlign=middle;resizable=0;points=[];autosize=1;strokeColor=none;" vertex="1" parent="1">
          <mxGeometry x="310" y="520" width="50" height="20" as="geometry" />
        </mxCell>
      </root>
    </mxGraphModel>
  </diagram>
</mxfile>
